<svg
        width="21"
        height="20"
        viewBox="0 0 21 20"
        fill="none"
        xmlns="http://www.w3.org/2000/svg"
>
    <g clip-path="url(#clip0_1503_115008)">
        <path
                d="M12.032 12.2763C11.7304 12.6817 11.4068 13.0701 11.0627 13.44C11.0229 13.4819 10.9811 13.5238 10.9393 13.5618C10.714 13.7921 10.4733 14.0068 10.2189 14.2044C9.98498 14.3869 9.73755 14.551 9.47863 14.6956C8.73482 15.126 7.9016 15.3775 7.0445 15.4302C6.18728 15.4828 5.32968 15.3352 4.53914 14.9989C3.68318 14.6416 2.9251 14.0835 2.32883 13.3716C1.73242 12.6595 1.31524 11.8143 1.11214 10.907L1.13008 10.9269C1.98616 11.8274 3.12125 12.4104 4.35019 12.5804C5.57912 12.7504 6.82928 12.4976 7.89642 11.863L8.05569 11.7612C8.1177 11.722 8.17744 11.6794 8.23479 11.6335C8.7621 11.2243 9.14822 10.7093 9.63979 10.0606L9.65368 10.0407L9.72934 9.94081C9.78314 9.86902 9.83682 9.79913 9.88659 9.72924C10.6011 10.5775 11.3195 11.428 12.032 12.2763Z"
                fill="#93ECCC"
        />
        <path
                d="M7.89693 11.8626C6.82979 12.4971 5.57963 12.7499 4.3507 12.5799C3.12176 12.4098 1.98655 11.8271 1.13046 10.9265L1.11252 10.9065C1.11252 10.8705 1.09661 10.8327 1.09067 10.7947C1.05089 10.5836 1.02373 10.3703 1.00908 10.1559C0.9357 8.83866 1.30868 7.5352 2.06751 6.45748C2.82621 5.37964 3.92607 4.59098 5.18835 4.21963C6.00616 3.98135 6.86781 3.93615 7.70583 4.08796C6.52957 4.53743 5.54389 5.38028 4.91528 6.4742C4.28654 7.56799 4.05338 8.84587 4.25496 10.0921C4.25496 10.126 4.26494 10.162 4.27087 10.1959C4.36194 10.5955 4.54735 10.9672 4.81171 11.28C5.07594 11.5926 5.41127 11.8369 5.78943 11.9924C6.12628 12.1379 6.49243 12.202 6.85859 12.1794C7.22461 12.1569 7.58029 12.0484 7.89693 11.8626Z"
                fill="#1FD895"
        />
        <path
                d="M19.675 14.0787C19.203 14.5199 18.6411 14.8533 18.0281 15.0555C17.4152 15.2578 16.7657 15.3243 16.1246 15.2504C15.038 15.1046 14.0091 14.5139 13.0639 13.5019C12.9762 13.4099 12.8946 13.3182 12.813 13.2223C12.5444 12.9089 12.2797 12.5956 12.0171 12.2802C11.3046 11.4319 10.5861 10.5816 9.86967 9.73329C9.86562 9.72569 9.86019 9.71886 9.85375 9.71328C9.83834 9.69049 9.82167 9.66847 9.80399 9.64745C9.48166 9.24825 9.2288 8.93083 8.86467 8.52555C8.54512 8.13394 8.16798 7.79349 7.74625 7.51557C7.43137 7.34326 7.07798 7.25463 6.71927 7.25805C6.50531 7.25729 6.29224 7.28691 6.08649 7.34591C5.84676 7.41682 5.61929 7.5238 5.41177 7.66333C5.01392 7.92275 4.69487 8.28701 4.4895 8.7161C4.28413 9.14531 4.20052 9.62289 4.24763 10.0965C4.12348 9.33117 4.16276 8.54809 4.36308 7.79906C4.586 6.95849 5.00558 6.18324 5.58708 5.53791C6.16859 4.89257 6.89509 4.39562 7.70646 4.08834C8.279 4.19191 8.83056 4.39031 9.33831 4.67518C9.66089 4.857 9.96427 5.07097 10.2438 5.31393C10.6132 5.63236 10.9597 5.97649 11.2807 6.34391C11.5235 6.61537 11.7265 6.85492 11.9194 7.08839C12.4031 6.46571 12.8967 5.82886 13.3783 5.19821C13.4897 5.05248 13.6012 4.90675 13.7087 4.76102C13.9706 4.42424 14.3542 4.20431 14.7764 4.14873C15.1988 4.09328 15.626 4.20647 15.9656 4.46412C16.3053 4.72177 16.5304 5.10313 16.5922 5.52575C16.6539 5.94851 16.5475 6.37861 16.2957 6.72312C15.8858 7.26805 15.4698 7.80906 15.0539 8.34601L14.2739 9.33206C14.1942 9.43183 14.1166 9.5316 14.0369 9.63542L14.3076 9.95878C14.5067 10.1983 14.7057 10.4379 14.9046 10.6774L15.263 11.0985C15.7385 11.6535 16.1864 11.9728 16.5485 12.0227C16.7179 12.0338 16.8876 12.0094 17.0469 11.9509C17.2063 11.8925 17.3516 11.8014 17.4739 11.6834C17.6282 11.5262 17.8129 11.4021 18.0165 11.3188C18.2202 11.2355 18.4386 11.1945 18.6585 11.1984C18.8785 11.2025 19.0953 11.2512 19.2958 11.3419C19.4964 11.4325 19.6764 11.5631 19.8251 11.7258C19.9737 11.8883 20.0878 12.0796 20.1604 12.2879C20.233 12.4961 20.2627 12.717 20.2475 12.9371C20.2324 13.1572 20.1728 13.3718 20.0722 13.5681C19.9718 13.7643 19.8325 13.938 19.663 14.0787H19.675Z"
                fill="#07C07E"
        />
    </g>
    <defs>
        <clipPath id="clip0_1503_115008">
            <rect
                    width="20.0001"
                    height="12"
                    fill="white"
                    transform="translate(1 4)"
            />
        </clipPath>
    </defs>
</svg>