<svg
  width="24"
  height="24"
  viewBox="0 0 24 24"
  fill="none"
  xmlns="http://www.w3.org/2000/svg"
>
  <path
    d="M5.27559 8.47673H9.26383L8.64677 10.8414C8.56194 11.1569 8.37597 11.4359 8.11736 11.6355C7.86021 11.835 7.54275 11.9408 7.21736 11.9355H5.36383C4.96022 11.93 4.5665 12.0605 4.24618 12.3061C3.91801 12.5602 3.67989 12.9127 3.56677 13.312C3.48506 13.6054 3.47598 13.9143 3.5403 14.212C3.5994 14.4835 3.71593 14.7393 3.88207 14.962C4.0504 15.1827 4.26794 15.3609 4.51736 15.4826C4.78051 15.613 5.07073 15.6795 5.36442 15.6767H6.49383C6.59469 15.675 6.69451 15.6973 6.78503 15.7418C6.87556 15.7863 6.95419 15.8517 7.01442 15.9326C7.08041 16.0108 7.12575 16.1042 7.14631 16.2044C7.16686 16.3046 7.16196 16.4083 7.13207 16.5061L6.42618 19.1179H5.19089C4.37781 19.126 3.57509 18.9352 2.85265 18.562C2.15888 18.2079 1.55203 17.7047 1.07559 17.0885C0.603216 16.4729 0.274597 15.7594 0.11383 15.0003C-0.0567282 14.2027 -0.0353569 13.3761 0.176183 12.5885L0.246771 12.3238C0.545285 11.2181 1.19931 10.2415 2.10795 9.54437C2.55355 9.20651 3.04991 8.94145 3.57854 8.75908C4.12424 8.56987 4.69803 8.47441 5.27559 8.47673Z"
    fill="#FF6C2C"
  />
  <path
    d="M7.28735 19.1179L10.7644 6.09436C10.8492 5.77886 11.0352 5.49989 11.2938 5.30024C11.5507 5.10075 11.868 4.99491 12.1932 5.00024H15.8821C16.6951 4.9922 17.4978 5.18303 18.2203 5.55613C18.9133 5.90972 19.5191 6.41299 19.9937 7.02952C20.4683 7.64604 20.7999 8.36039 20.9644 9.12083C21.141 9.91819 21.1168 10.7469 20.8938 11.5326L20.8232 11.7973C20.6744 12.3528 20.436 12.8803 20.1174 13.3591C19.6458 14.0689 19.0057 14.6507 18.2543 15.0526C17.5029 15.4545 16.6636 15.6639 15.8115 15.662H12.6174L13.2526 13.2797C13.3409 12.9706 13.5266 12.6983 13.7821 12.5032C14.0392 12.3037 14.3567 12.1979 14.6821 12.2032H15.7056C16.1178 12.2036 16.5185 12.0669 16.8444 11.8144C17.1703 11.562 17.4029 11.2083 17.5056 10.8091C17.5868 10.5265 17.5949 10.228 17.5291 9.94142C17.4693 9.66971 17.352 9.41396 17.185 9.19142C17.0153 8.96983 16.7983 8.78896 16.5497 8.66201C16.2891 8.52653 15.9993 8.45685 15.7056 8.45907H13.7291L11.1526 18.0414C11.0644 18.3505 10.8787 18.6228 10.6232 18.8179C10.3718 19.0154 10.0606 19.1212 9.74088 19.1179H7.28735Z"
    fill="#FF6C2C"
  />
  <path
    d="M21.2456 6.90085H21.0273V5.21849H20.4332V5.02496H21.8397V5.21849H21.2456V6.90085Z"
    fill="#FF6C2C"
  />
  <path
    d="M22.9521 6.90085L22.3156 5.23555H22.3056C22.3174 5.36732 22.3232 5.52418 22.3232 5.70614V6.90085H22.1221V5.02496H22.4503L23.0444 6.57202H23.055L23.6538 5.02496H23.9797V6.90085H23.7644V5.69202C23.7644 5.5532 23.7709 5.4032 23.7827 5.24026H23.7727L23.128 6.90085H22.9521Z"
    fill="#FF6C2C"
  />
</svg>