<svg width="24" height="24" viewBox="0 0 24 24" fill="none" xmlns="http://www.w3.org/2000/svg">
    <path
            d="M4.12821 14.2118C4.13267 12.9997 4.08467 13.1792 3.90599 11.8627C4.04141 10.5203 3.44231 9.53807 3.4398 8.37261C3.4398 8.09055 3.08687 7.96701 3.15039 7.70636C2.76792 8.48627 2.55267 9.36387 2.55267 10.292C2.55267 11.8442 3.15386 13.2552 4.13478 14.3037C4.13186 14.2731 4.12979 14.2425 4.12821 14.2118V14.2118Z"
            fill="#3D5263" />
    <path
            d="M16.2163 12.2473L16.1818 12.2745C15.5441 14.6603 13.6925 16.5613 11.3159 17.2994L11.9817 17.8501L15.2214 20.5301L17.1423 22.1192C17.1899 21.9989 17.217 21.8685 17.2171 21.7317C17.2171 21.7312 17.2172 21.7309 17.2172 21.7305V20.7233V20.7232V19.0398V11.4581L16.2163 12.2473V12.2473Z"
            fill="#F9E82D" />
    <path
            d="M2.12698 12.5529L1.72736 12.2403L0.727295 11.4581V16.8665V21.7305C0.727295 21.8678 0.754467 21.9985 0.802245 22.1193L4.3516 19.2069L5.99066 17.862L6.74321 17.2446C4.5404 16.5014 2.81265 14.7516 2.12698 12.5529Z"
            fill="#F9E82D" />
    <path
            d="M15.2214 20.5302L11.9817 17.8502L11.3159 17.2994C10.6211 17.5152 9.88152 17.6319 9.11421 17.6319C8.28428 17.6319 7.48681 17.4955 6.74327 17.2446L5.99072 17.8621L4.3516 19.207L0.802246 22.1193C0.960596 22.5196 1.35504 22.8036 1.81775 22.8036H16.1267C16.5894 22.8036 16.9839 22.5195 17.1422 22.1192L15.2214 20.5302V20.5302Z"
            fill="#EDD514" fill-opacity="0.895" />
    <path opacity="0.1"
          d="M15.2214 20.5301C12.7014 20.7699 8.22647 20.8631 4.35172 19.207C3.04219 18.6473 1.80116 17.8879 0.727417 16.8665V21.7305C0.727417 21.8678 0.754589 21.9986 0.802367 22.1193C0.960718 22.5195 1.35516 22.8036 1.81788 22.8036H16.1268C16.5896 22.8036 16.9841 22.5195 17.1423 22.1192C17.1899 21.9989 17.2171 21.8685 17.2172 21.7317V20.261C17.2172 20.261 16.4525 20.413 15.2214 20.5301V20.5301Z"
          fill="#3D5263" />
    <path opacity="0.1"
          d="M5.99072 17.862C6.90124 18.263 7.91031 18.4863 8.97238 18.4863C10.0452 18.4863 11.0639 18.2588 11.9816 17.8501C14.2357 16.8465 15.8796 14.7499 16.2163 12.2473L16.1818 12.2745C15.5442 14.6602 13.6926 16.5613 11.316 17.2994C10.6211 17.5152 9.88157 17.6319 9.11426 17.6319C8.28433 17.6319 7.48687 17.4955 6.74332 17.2446C4.54052 16.5014 2.81277 14.7516 2.12709 12.5529L1.72748 12.2403C2.06333 14.7561 3.72044 16.8623 5.99072 17.862V17.862Z"
          fill="#3D5263" />
    <path
            d="M4.02755 5.27576C3.91819 5.38015 3.8123 5.48802 3.70969 5.59893C3.70714 5.60168 3.70453 5.60443 3.70197 5.60724C3.68775 5.62268 3.67322 5.63775 3.65912 5.65331C3.66246 5.65002 3.66587 5.64684 3.66921 5.64355C4.99194 4.3405 6.81968 3.53426 8.8389 3.53426C12.8749 3.53426 16.1468 6.75428 16.1468 10.7263C16.1468 12.564 15.4462 14.2403 14.2939 15.5116C15.6089 14.2112 16.4218 12.4188 16.4221 10.4392C16.4221 10.4389 16.4221 10.4386 16.4221 10.4384C16.4221 9.17357 16.0899 7.98526 15.5073 6.9526C15.4192 6.79658 15.3255 6.64409 15.2262 6.49537C14.8994 6.0056 14.5134 5.55759 14.0783 5.1609C13.7194 4.83385 13.3275 4.5415 12.9075 4.29001C12.6475 4.13423 12.3766 3.99424 12.0965 3.87089C11.4506 3.58637 10.755 3.39135 10.026 3.30203C9.72725 3.26542 9.42295 3.24634 9.11415 3.24634C8.7648 3.24634 8.4213 3.27081 8.08502 3.31747C7.33789 3.42114 6.62729 3.63626 5.97061 3.94483C5.68235 4.08027 5.4045 4.23377 5.13855 4.40379C4.73973 4.65899 4.36765 4.95111 4.02755 5.27576V5.27576Z"
            fill="white" />
    <path
            d="M6.55238 8.54573C6.70793 8.54573 6.83382 8.42183 6.83382 8.26881C6.83382 8.11608 6.70793 7.99207 6.55238 7.99207C6.39688 7.99207 6.27069 8.11614 6.27069 8.26881C6.27075 8.42177 6.39688 8.54573 6.55238 8.54573Z"
            fill="white" />
    <path
            d="M12.0853 8.54573C12.2406 8.54573 12.3667 8.42183 12.3667 8.26881C12.3667 8.11608 12.2406 7.99207 12.0853 7.99207C11.9297 7.99207 11.8038 8.11614 11.8038 8.26881C11.8038 8.42177 11.9298 8.54573 12.0853 8.54573Z"
            fill="white" />
    <path
            d="M14.3254 15.4767C15.4589 14.2097 16.1468 12.5471 16.1468 10.7263C16.1468 6.75432 12.875 3.53424 8.83891 3.53424C6.81968 3.53424 4.99194 4.34047 3.66921 5.64353C3.39014 5.95012 3.13757 6.28046 2.91466 6.63102C2.82203 6.77681 2.73455 6.92601 2.65243 7.0785C2.22285 7.87659 1.94098 8.76352 1.8439 9.7043C1.81892 9.94616 1.80609 10.1916 1.80609 10.44C1.80609 10.6703 1.81752 10.8978 1.83904 11.1225C1.88621 11.6155 1.98371 12.094 2.12686 12.553C2.8126 14.7517 4.54029 16.5015 6.74309 17.2447C7.48658 17.4956 8.28411 17.632 9.11403 17.632C9.88135 17.632 10.6209 17.5154 11.3157 17.2995C12.4184 16.957 13.4075 16.3639 14.2153 15.5884C14.2479 15.5572 14.3254 15.4767 14.3254 15.4767V15.4767ZM13.9735 11.9857C13.8439 12.4174 13.6664 12.8283 13.4466 13.2118C12.4393 14.9689 10.5507 16.1518 8.38714 16.1518C6.71039 16.1518 5.19904 15.4411 4.13472 14.3036C3.1538 13.2553 2.55268 11.8442 2.55268 10.292C2.55268 9.36385 2.76786 8.48625 3.1504 7.70634C4.10159 5.76688 6.08909 4.43224 8.3872 4.43224C8.62834 4.43224 8.86596 4.4472 9.09944 4.47579C11.9855 4.82863 14.2215 7.29793 14.2215 10.292C14.2214 10.881 14.1345 11.4494 13.9735 11.9857V11.9857Z"
            fill="#F1F2F2" />
    <path
            d="M3.71021 5.59894C3.70751 5.60187 3.70473 5.6048 3.70203 5.60779C3.70473 5.6048 3.70751 5.60187 3.71021 5.59894Z"
            fill="#F1F2F2" />
    <path
            d="M16.3876 11.1393C16.3579 11.4421 16.3092 11.7394 16.2425 12.03C16.2236 12.1121 16.2034 12.1935 16.1818 12.2745L16.2162 12.2473L17.2171 11.458V11.4566L16.3876 11.1393V11.1393Z"
            fill="#5A3620" />
    <path
            d="M0.727356 11.4581L1.72736 12.2403L2.12698 12.5529C1.98388 12.094 1.88632 11.6154 1.83915 11.1224L1.66591 11.1745L0.727295 11.4567"
            fill="#5A3620" />
    <path
            d="M6.04561 12.9607C5.66812 12.9607 5.36151 13.2618 5.36151 13.6341C5.36151 14.006 5.66806 14.3075 6.04561 14.3075C6.42376 14.3075 6.73013 14.006 6.73013 13.6341C6.73013 13.2618 6.4237 12.9607 6.04561 12.9607Z"
            fill="#5A3620" />
    <path
            d="M11.7484 12.9607C11.3705 12.9607 11.064 13.2618 11.064 13.6341C11.064 14.006 11.3705 14.3075 11.7484 14.3075C12.1265 14.3075 12.4327 14.006 12.4327 13.6341C12.4327 13.2618 12.1265 12.9607 11.7484 12.9607V12.9607Z"
            fill="#5A3620" />
    <path
            d="M11.8511 7.57153C11.4279 7.57153 10.9124 8.03614 10.9124 8.45304C10.9124 8.86971 11.4064 9.48242 11.8296 9.48242C12.2532 9.48242 12.79 8.91195 12.79 8.49534C12.7901 8.07838 12.2747 7.57153 11.8511 7.57153V7.57153ZM12.0853 8.54571C11.9298 8.54571 11.8038 8.42176 11.8038 8.26879C11.8038 8.11613 11.9298 7.99205 12.0853 7.99205C12.2406 7.99205 12.3667 8.11607 12.3667 8.26879C12.3667 8.42182 12.2407 8.54571 12.0853 8.54571Z"
            fill="#5A3620" />
    <path
            d="M6.1805 7.59265C5.75675 7.59265 5.3064 8.0784 5.3064 8.49531C5.3064 8.91197 5.84284 9.46124 6.26647 9.46124C6.68973 9.46124 7.22647 8.91191 7.22647 8.49531C7.22654 8.07834 6.60382 7.59265 6.1805 7.59265ZM6.55241 8.54568C6.39685 8.54568 6.27072 8.42173 6.27072 8.26876C6.27072 8.11609 6.39692 7.99202 6.55241 7.99202C6.70796 7.99202 6.83385 8.11603 6.83385 8.26876C6.83385 8.42179 6.70796 8.54568 6.55241 8.54568Z"
            fill="#5A3620" />
    <path
            d="M21.1701 16.7947C21.3883 16.247 21.6382 16.1366 21.7382 16.1159C19.2607 16.3407 19.5097 17.7771 19.6699 18.2671C19.7033 18.3695 19.7329 18.4306 19.7329 18.4306C19.7329 18.4306 19.8564 18.717 20.191 18.954C20.4432 19.1326 20.8153 19.2832 21.3456 19.2617C22.9907 19.2893 23.5116 16.2606 23.5116 16.2606C23.1071 16.9579 21.9065 16.8514 21.1701 16.7947Z"
            fill="#FEF3DF" />
    <path
            d="M3.70203 5.60717C3.70458 5.60442 3.7072 5.60167 3.70975 5.59885C3.81236 5.48794 3.91825 5.38008 4.02761 5.27569C3.48569 4.85831 2.54781 4.32894 1.49011 4.57977C1.49011 4.57977 1.66117 5.80363 2.91478 6.63092C3.13768 6.28035 3.39025 5.95007 3.66933 5.64342C3.66598 5.64671 3.66258 5.64988 3.65924 5.65317C3.67328 5.63774 3.68781 5.6226 3.70203 5.60717V5.60717Z"
            fill="#FEF3DF" />
    <path
            d="M16.4597 4.57988C15.4974 4.35166 14.6343 4.76946 14.0783 5.161C14.5134 5.55762 14.8994 6.0057 15.2263 6.49546C16.306 5.67655 16.4597 4.57988 16.4597 4.57988V4.57988Z"
            fill="#FEF3DF" />
    <path
            d="M8.88906 11.0397C6.25704 11.0397 4.12408 12.4134 4.12408 14.1079C4.12408 14.1427 4.12639 14.1771 4.12816 14.2117C4.12974 14.2425 4.1318 14.273 4.13472 14.3035C5.19898 15.4411 6.71033 16.1518 8.38714 16.1518C10.5508 16.1518 12.4393 14.9688 13.4466 13.2117C12.8512 11.9545 11.0364 11.0397 8.88906 11.0397V11.0397ZM6.04556 14.3075C5.66801 14.3075 5.36147 14.0059 5.36147 13.6341C5.36147 13.2618 5.66808 12.9606 6.04556 12.9606C6.42366 12.9606 6.73009 13.2618 6.73009 13.6341C6.73009 14.0059 6.42372 14.3075 6.04556 14.3075ZM11.7484 14.3075C11.3704 14.3075 11.064 14.0059 11.064 13.6341C11.064 13.2618 11.3704 12.9606 11.7484 12.9606C12.1265 12.9606 12.4326 13.2618 12.4326 13.6341C12.4326 14.0059 12.1265 14.3075 11.7484 14.3075Z"
            fill="#FEF3DF" />
    <path
            d="M5.97105 1.45459C4.86697 2.43407 5.96181 3.93287 5.97062 3.94489C6.6273 3.63633 7.3379 3.4212 8.08504 3.31753C6.66183 3.11084 5.97105 1.45459 5.97105 1.45459Z"
            fill="#FEF3DF" />
    <path
            d="M12.0461 1.45459C12.0461 1.45459 11.3857 3.03846 10.0261 3.3021C10.755 3.39141 11.4506 3.58637 12.0966 3.87095C12.3001 3.55652 13.0085 2.30832 12.0461 1.45459Z"
            fill="#FEF3DF" />
    <path
            d="M13.9736 11.9857C14.1345 11.4494 14.3718 10.4368 14.3718 9.84781C14.3718 6.85375 11.9855 4.8286 9.09935 4.47577C8.96823 6.1526 9.31995 9.68292 13.9736 11.9857ZM11.0844 8.49532C11.0844 8.07835 11.4279 7.74071 11.8511 7.74071C12.2747 7.74071 12.6181 8.07841 12.6181 8.49532C12.6181 8.91192 12.2747 9.24974 11.8511 9.24974C11.4279 9.24974 11.0844 8.91198 11.0844 8.49532V8.49532Z"
            fill="#87654A" />
    <path
            d="M19.7328 18.4306C19.7328 18.4306 19.7032 18.3696 19.6698 18.2672C19.4414 18.4656 18.8774 18.8795 18.0267 19.0099V19.0099C18.0262 19.01 18.0256 19.01 18.0251 19.0102C17.7793 19.0477 17.5097 19.0618 17.2172 19.0399V20.7234C17.3424 20.6754 17.4973 20.6136 17.6717 20.5389C18.0037 20.3967 18.4068 20.2074 18.8128 19.9769C18.8144 19.9759 18.816 19.975 18.8177 19.9741C19.3136 19.6921 19.8128 19.3488 20.191 18.954C19.8564 18.717 19.7328 18.4306 19.7328 18.4306Z"
            fill="#B58765" />
    <path
            d="M1.49011 4.57985C2.5478 4.32902 3.48575 4.85839 4.0276 5.27577C4.36771 4.95117 4.73978 4.659 5.13861 4.40392C3.6616 2.5612 0.859139 3.68006 0.859139 3.68006C0.659575 5.49275 1.6566 6.51524 2.65254 7.07853C2.73466 6.92604 2.82213 6.77678 2.91477 6.63106C1.66116 5.80365 1.49011 4.57985 1.49011 4.57985Z"
            fill="#B58765" />
    <path
            d="M12.9075 4.2901C13.3275 4.54165 13.7194 4.83395 14.0783 5.161C14.6342 4.76946 15.4974 4.35166 16.4597 4.57988C16.4597 4.57988 16.3061 5.67655 15.2263 6.49546C15.3255 6.64412 15.4193 6.79661 15.5073 6.95269C16.4277 6.36738 17.2761 5.36505 17.0906 3.68015C17.0906 3.68009 14.4067 2.60878 12.9075 4.2901V4.2901Z"
            fill="#B58765" />
    <path
            d="M9.16779 4.47574C8.93431 4.44715 8.6283 4.43219 8.38716 4.43219C6.08905 4.43219 4.10155 5.76684 3.15036 7.70629C3.08684 7.96694 3.05292 8.23853 3.05292 8.5206C3.05292 8.60758 3.05808 8.68732 3.06027 8.77036C3.06799 9.00576 3.08751 9.22411 3.11225 9.43648C3.37313 10.9295 3.59605 11.9785 3.93068 13.4301C3.93409 13.4545 3.94065 13.4782 3.9443 13.5026C3.9818 13.7435 4.04411 13.9807 4.12818 14.2117C4.12642 14.1771 4.12411 14.1427 4.12411 14.1079C4.12411 12.4134 6.25706 11.0397 8.88908 11.0397C11.0364 11.0397 12.8512 11.9545 13.4467 13.2117C13.6665 12.8283 13.844 12.4174 13.9736 11.9856C11.6683 10.5805 10.6963 9.52405 10.0431 8.14403C9.38983 6.764 9.1022 5.31416 9.16779 4.47574ZM6.26642 9.24972C5.84274 9.24972 5.49978 8.91196 5.49978 8.49529C5.49978 8.07833 5.84274 7.74069 6.26642 7.74069C6.68975 7.74069 7.03301 8.07839 7.03301 8.49529C7.03307 8.9119 6.68968 9.24972 6.26642 9.24972Z"
            fill="#B58765" />
</svg>