<svg
        width="120"
        height="120"
        viewBox="0 0 21 20"
        fill="none"
        xmlns="http://www.w3.org/2000/svg"
>
    <path
            d="M0.636819 14.3576H0V7.68851C0.506447 7.52805 1.03797 7.4428 1.5745 7.43779C1.92049 7.43278 2.26648 7.49295 2.59241 7.61329C2.88324 7.71859 3.15401 7.88407 3.37966 8.09968C3.60029 8.31028 3.77077 8.561 3.88109 8.84682C4.00143 9.14266 4.05659 9.46358 4.05659 9.78449C4.05659 10.1957 3.98639 10.5467 3.84599 10.8425C3.71562 11.1233 3.52507 11.369 3.2894 11.5696C3.05874 11.7601 2.79298 11.9005 2.50215 11.9858C2.21132 12.076 1.90544 12.1212 1.59957 12.1212C1.4341 12.1212 1.27364 12.1111 1.11318 12.0861C0.952722 12.061 0.792264 12.0259 0.636819 11.9858V14.3576ZM3.32951 9.76945C3.32951 9.23793 3.17908 8.8067 2.88324 8.47576C2.58739 8.14982 2.16619 7.98435 1.62966 7.98435C1.45917 7.98435 1.2937 7.99438 1.12321 8.01444C0.957736 8.03449 0.792264 8.07461 0.636819 8.12977V11.3841C0.787249 11.4342 0.937679 11.4743 1.09312 11.5094C1.24355 11.5445 1.39398 11.5596 1.54943 11.5596C2.09599 11.5596 2.52722 11.4041 2.84814 11.0932C3.16905 10.7874 3.32951 10.3461 3.32951 9.76945Z"
            fill="black"
    />
    <path
            d="M5.34009 12.076V5.64258H5.98192V12.0709H5.34009V12.076Z"
            fill="black"
    />
    <path
            d="M11.2421 11.4041C11.0365 11.6297 10.7808 11.8103 10.5 11.9306C10.2191 12.0509 9.87817 12.1111 9.48204 12.1111C9.1511 12.1161 8.82015 12.056 8.51428 11.9206C8.24852 11.8052 8.01284 11.6297 7.82731 11.4091C7.64178 11.1935 7.50138 10.9428 7.41614 10.672C7.32087 10.3912 7.27574 10.0954 7.27574 9.79951C7.26571 9.44349 7.32588 9.08246 7.44121 8.7465C7.53648 8.47071 7.69193 8.22 7.8925 8.00438C8.07803 7.81384 8.30368 7.66341 8.55439 7.56814C8.81012 7.47286 9.0809 7.42773 9.35167 7.42773C10.0236 7.42773 10.5351 7.63332 10.876 8.04951C11.217 8.46069 11.3825 9.06241 11.3724 9.85467H7.9276C7.94766 10.3762 8.09809 10.7873 8.37889 11.0932C8.65969 11.3991 9.0458 11.5545 9.52717 11.5545C9.77789 11.5595 10.0286 11.5144 10.2643 11.4191C10.4949 11.3239 10.6955 11.1785 10.861 10.9929L11.2421 11.4041ZM10.7256 9.31814C10.7256 9.13762 10.6955 8.9571 10.6404 8.78662C10.5852 8.63117 10.505 8.48576 10.3946 8.36541C10.2793 8.24006 10.1339 8.14478 9.97846 8.08461C9.59236 7.94421 9.16614 7.94421 8.78004 8.08461C8.62961 8.14478 8.48921 8.23504 8.37889 8.35538C8.26857 8.48074 8.17832 8.62114 8.10812 8.77157C8.02287 8.94206 7.97273 9.12759 7.94766 9.31814H10.7256Z"
            fill="black"
    />
    <path
            d="M15.5793 8.56573C15.4389 8.3802 15.2634 8.22977 15.0579 8.11946C14.8523 8.01917 14.6216 7.96903 14.396 7.97906C14.07 7.97906 13.8394 8.03923 13.709 8.15456C13.5786 8.26487 13.5084 8.42533 13.5134 8.59582C13.5084 8.70613 13.5435 8.81645 13.6037 8.90671C13.6689 8.99696 13.7491 9.07218 13.8444 9.12734C13.9547 9.19252 14.07 9.24768 14.1904 9.2878C14.3207 9.33292 14.4561 9.37805 14.6015 9.42318C14.777 9.47834 14.9475 9.53851 15.123 9.6037C15.2935 9.66387 15.454 9.74911 15.5994 9.85441C15.7398 9.9547 15.8601 10.0851 15.9504 10.2355C16.0457 10.406 16.0908 10.6015 16.0858 10.8021C16.0908 10.9977 16.0407 11.1882 15.9504 11.3637C15.8601 11.5292 15.7348 11.6696 15.5844 11.7799C15.4189 11.9003 15.2334 11.9855 15.0378 12.0356C14.4962 12.176 13.9196 12.146 13.3981 11.9454C13.0922 11.81 12.8164 11.6044 12.6008 11.3537L13.1023 10.9124C13.4382 11.3437 13.8695 11.5543 14.401 11.5543C14.747 11.5543 15.0027 11.4891 15.1732 11.3587C15.3387 11.2283 15.4239 11.0729 15.4239 10.8924C15.4289 10.767 15.3988 10.6467 15.3336 10.5364C15.2685 10.4361 15.1832 10.3558 15.0829 10.2907C14.9676 10.2205 14.8472 10.1603 14.7169 10.1202C14.5765 10.075 14.4311 10.0299 14.2806 9.98479C14.1051 9.93464 13.9346 9.87949 13.7642 9.81931C13.6037 9.76416 13.4483 9.68393 13.3079 9.58364C13.1725 9.48837 13.0571 9.36301 12.9769 9.22261C12.8866 9.05212 12.8415 8.85656 12.8465 8.661C12.8465 8.25484 12.9919 7.94396 13.2878 7.72333C13.5836 7.5027 13.9647 7.39238 14.4361 7.39238C14.7419 7.38737 15.0428 7.44754 15.3236 7.56287C15.5844 7.67318 15.8301 7.86874 16.0707 8.14453L15.5994 8.57576L15.5793 8.56573Z"
            fill="black"
    />
    <path
            d="M17.2842 12.0757V5.65234H17.926V12.0757H17.2842ZM17.931 9.70392L20.1373 7.47756H20.9998L18.7383 9.68386L20.9898 12.0707H20.0972L17.931 9.70392Z"
            fill="black"
    />
    <path d="M7.57663 14.3577H3.70557V13.751H7.57663V14.3577Z" fill="#53BCE6" />
</svg>