<svg width="24" height="24" viewBox="0 0 24 24" fill="none" xmlns="http://www.w3.org/2000/svg">
    <path
            d="M8.46156 8.76923C8.46156 9.31693 8.29915 9.85233 7.99486 10.3077C7.69058 10.7631 7.25808 11.1181 6.75207 11.3277C6.24606 11.5373 5.68926 11.5921 5.15208 11.4853C4.61491 11.3784 4.12148 11.1147 3.73419 10.7274C3.34691 10.3401 3.08316 9.84666 2.97631 9.30948C2.86946 8.77231 2.92429 8.21551 3.13389 7.70949C3.34349 7.20348 3.69843 6.77099 4.15382 6.4667C4.60922 6.16241 5.14462 6 5.69233 6C6.05599 6 6.41609 6.07162 6.75207 6.21079C7.08805 6.34995 7.39333 6.55393 7.65048 6.81108C7.90763 7.06822 8.11161 7.3735 8.25077 7.70948C8.38994 8.04546 8.46157 8.40556 8.46156 8.76923Z"
            fill="#E66E00" />
    <path
            d="M8.46156 15.2307C8.46156 15.7784 8.29915 16.3138 7.99486 16.7692C7.69058 17.2246 7.25808 17.5795 6.75207 17.7891C6.24606 17.9987 5.68926 18.0535 5.15208 17.9467C4.6149 17.8398 4.12147 17.5761 3.73419 17.1888C3.3469 16.8015 3.08316 16.3081 2.97631 15.7709C2.86945 15.2337 2.9243 14.6769 3.13389 14.1709C3.34349 13.6649 3.69843 13.2324 4.15382 12.9281C4.60922 12.6238 5.14462 12.4614 5.69233 12.4614C6.05599 12.4614 6.41609 12.533 6.75207 12.6722C7.08805 12.8114 7.39333 13.0154 7.65048 13.2725C7.90763 13.5297 8.11161 13.8349 8.25077 14.1709C8.38994 14.5069 8.46156 14.867 8.46156 15.2307Z"
            fill="#E66E00" />
    <path
            d="M14.9231 8.76923C14.9231 9.31693 14.7607 9.85233 14.4564 10.3077C14.1521 10.7631 13.7196 11.1181 13.2136 11.3277C12.7076 11.5373 12.1508 11.5921 11.6136 11.4853C11.0764 11.3784 10.583 11.1147 10.1957 10.7274C9.80845 10.3401 9.54471 9.84666 9.43786 9.30949C9.331 8.77231 9.38584 8.21551 9.59544 7.7095C9.80503 7.20348 10.16 6.77099 10.6154 6.4667C11.0708 6.16241 11.6062 6 12.1539 6C12.5175 6 12.8776 6.07162 13.2136 6.21079C13.5496 6.34995 13.8549 6.55393 14.112 6.81108C14.3692 7.06822 14.5731 7.3735 14.7123 7.70948C14.8515 8.04546 14.9231 8.40556 14.9231 8.76923Z"
            fill="#E66E00" />
    <path
            d="M14.9231 15.2307C14.9231 15.7784 14.7607 16.3138 14.4564 16.7692C14.1521 17.2246 13.7196 17.5795 13.2136 17.7891C12.7076 17.9987 12.1508 18.0535 11.6136 17.9467C11.0764 17.8398 10.583 17.5761 10.1957 17.1888C9.80845 16.8015 9.54471 16.3081 9.43786 15.7709C9.331 15.2337 9.38584 14.6769 9.59544 14.1709C9.80503 13.6649 10.16 13.2324 10.6154 12.9281C11.0708 12.6238 11.6062 12.4614 12.1539 12.4614C12.5175 12.4614 12.8776 12.533 13.2136 12.6722C13.5496 12.8114 13.8549 13.0154 14.112 13.2725C14.3692 13.5297 14.5732 13.8349 14.7123 14.1709C14.8515 14.5069 14.9231 14.867 14.9231 15.2307Z"
            fill="#E66E00" />
    <path
            d="M21.3847 8.76923C21.3847 9.31693 21.2222 9.85233 20.918 10.3077C20.6137 10.7631 20.1812 11.1181 19.6752 11.3277C19.1692 11.5373 18.6124 11.5921 18.0752 11.4853C17.538 11.3784 17.0446 11.1147 16.6573 10.7274C16.27 10.3401 16.0063 9.84666 15.8994 9.30949C15.7926 8.77231 15.8474 8.21551 16.057 7.7095C16.2666 7.20348 16.6215 6.77099 17.0769 6.4667C17.5323 6.16241 18.0677 6 18.6154 6C18.9791 6 19.3392 6.07162 19.6752 6.21079C20.0111 6.34995 20.3164 6.55393 20.5736 6.81108C20.8307 7.06823 21.0347 7.37351 21.1739 7.70949C21.313 8.04547 21.3847 8.40556 21.3847 8.76923Z"
            fill="#E66E00" />
    <path
            d="M21.3847 15.2307C21.3847 15.7784 21.2222 16.3138 20.918 16.7692C20.6137 17.2246 20.1812 17.5795 19.6752 17.7891C19.1692 17.9987 18.6124 18.0535 18.0752 17.9467C17.538 17.8398 17.0446 17.5761 16.6573 17.1888C16.27 16.8015 16.0063 16.3081 15.8994 15.7709C15.7926 15.2337 15.8474 14.6769 16.057 14.1709C16.2666 13.6649 16.6215 13.2324 17.0769 12.9281C17.5323 12.6238 18.0677 12.4614 18.6154 12.4614C18.9791 12.4614 19.3392 12.533 19.6752 12.6722C20.0111 12.8114 20.3164 13.0154 20.5736 13.2725C20.8307 13.5297 21.0347 13.8349 21.1739 14.1709C21.313 14.5069 21.3847 14.867 21.3847 15.2307Z"
            fill="#E66E00" />
</svg>