<svg width="25" height="24" viewBox="0 0 25 24" fill="none" xmlns="http://www.w3.org/2000/svg">
    <g clip-path="url(#clip0_5094_451709)">
        <path
                d="M12.5916 15.4031C11.1795 15.4031 9.885 14.7664 9.11356 13.684C8.8782 13.3529 8.95665 12.8945 9.29661 12.6653C9.63657 12.4361 10.1073 12.5125 10.3426 12.8436C10.8395 13.5312 11.6763 13.9387 12.5916 13.9387C13.5069 13.9387 14.3437 13.5312 14.8405 12.8436C15.0759 12.5125 15.5466 12.4361 15.8866 12.6653C16.2265 12.8945 16.305 13.3529 16.0696 13.684C15.2982 14.7664 13.9906 15.4031 12.5916 15.4031Z"
                fill="#F68A20"/>
        <path
                d="M9.89801 19.2997C4.44561 19.2997 0 16.0271 0 12.0032C0 10.5643 0.549163 9.18905 1.60826 8.0048L0.588389 4.96143C0.496862 4.68129 0.588389 4.37568 0.810669 4.18467C1.03295 3.99366 1.35983 3.94273 1.63441 4.07007L4.99477 5.64905C6.48536 5.0251 8.17207 4.69402 9.89801 4.69402C15.3504 4.69402 19.796 7.9666 19.796 11.9905C19.796 16.0271 15.3504 19.2997 9.89801 19.2997ZM2.57584 6.14567L3.1773 7.95387C3.26883 8.20855 3.20345 8.50142 3.00732 8.69243C2.02667 9.67293 1.51674 10.819 1.51674 11.9905C1.51674 15.1994 5.28243 17.8226 9.91109 17.8226C14.5398 17.8226 18.3054 15.2121 18.3054 11.9905C18.3054 8.76883 14.5398 6.15841 9.91109 6.15841C8.27667 6.15841 6.68149 6.48948 5.32165 7.11344C5.11245 7.20258 4.87709 7.20258 4.66789 7.11344L2.57584 6.14567Z"
                fill="#F05B24"/>
        <path
                d="M15.8734 10.1695C15.8734 10.7935 15.3635 11.2901 14.7228 11.2901C14.0821 11.2901 13.5722 10.7935 13.5722 10.1695C13.5722 9.54556 14.0821 9.04895 14.7228 9.04895C15.3635 9.04895 15.8734 9.5583 15.8734 10.1695ZM9.29655 10.1695C9.29655 10.7935 9.80649 11.2901 10.4472 11.2901C11.0879 11.2901 11.5978 10.7935 11.5978 10.1695C11.5978 9.54556 11.0879 9.04895 10.4472 9.04895C9.80649 9.04895 9.29655 9.5583 9.29655 10.1695ZM23.6925 20C23.8755 20 24.0455 19.9363 24.1893 19.8217C24.4116 19.6307 24.5031 19.3251 24.4116 19.045L23.3917 16.0016C24.4508 14.8174 25 13.4421 25 12.0032C25 7.97931 20.5544 4.70673 15.102 4.70673C9.64959 4.70673 5.20398 7.97931 5.20398 12.0032C5.20398 16.0271 9.64959 19.2996 15.102 19.2996C16.8279 19.2996 18.5146 18.9686 20.0052 18.3446L23.3656 19.9236C23.4702 19.9745 23.5879 20 23.6925 20ZM20.0183 16.8038C19.9137 16.8038 19.796 16.8293 19.6914 16.8802C18.3185 17.5042 16.7364 17.8353 15.102 17.8353C10.4733 17.8353 6.70764 15.2248 6.70764 12.0032C6.70764 8.78154 10.4733 6.17111 15.102 6.17111C19.7307 6.17111 23.4963 8.78154 23.4963 12.0032C23.4963 13.1874 22.9733 14.3335 22.0058 15.314C21.8096 15.505 21.7443 15.7979 21.8358 16.0525L22.4372 17.8607L20.3583 16.8802C20.2406 16.8293 20.136 16.8038 20.0183 16.8038Z"
                fill="#0685C1"/>
    </g>
    <defs>
        <clipPath id="clip0_5094_451709">
            <rect width="25" height="16" fill="white" transform="translate(0 4)"/>
        </clipPath>
    </defs>
</svg>